<?xml version="1.0" encoding="UTF-8" standalone="no"?>
<svg width="146px" height="170px" viewBox="0 0 146 170" version="1.1" xmlns="http://www.w3.org/2000/svg" xmlns:xlink="http://www.w3.org/1999/xlink">
    <!-- Generator: Sketch 41.2 (35397) - http://www.bohemiancoding.com/sketch -->
    <title>algolia</title>
    <desc>Created with Sketch.</desc>
    <defs>
        <rect id="path-1" x="0" y="0" width="144" height="168" rx="4"></rect>
        <mask id="mask-2" maskContentUnits="userSpaceOnUse" maskUnits="objectBoundingBox" x="-1" y="-1" width="146" height="170">
            <rect x="-1" y="-1" width="146" height="170" fill="white"></rect>
            <use xlink:href="#path-1" fill="black"></use>
        </mask>
    </defs>
    <g id="Page-1" stroke="none" stroke-width="1" fill="none" fill-rule="evenodd">
        <g id="Desktop" transform="translate(-778.000000, -44.000000)">
            <g id="info-top" transform="translate(-9.000000, -26.000000)">
                <g id="algolia" transform="translate(788.000000, 71.000000)">
                    <g id="Rectangle-2">
                        <use fill="#FFFFFF" fill-rule="evenodd" xlink:href="#path-1"></use>
                        <use stroke="#215BED" mask="url(#mask-2)" stroke-width="2" xlink:href="#path-1"></use>
                    </g>
                    <text id="Search-Index" opacity="0.8" font-family="OpenSans, Open Sans" font-size="16" font-weight="normal" fill="#215BED">
                        <tspan x="24.2070312" y="145">Search Index</tspan>
                    </text>
                    <path d="M72.882439,47.0730031 C58.211439,47.0730031 46.302439,58.9710031 46.302439,73.6610031 C46.302439,88.3510031 58.197439,100.249003 72.882439,100.249003 C87.567439,100.249003 99.462439,88.3370031 99.462439,73.6470031 C99.462439,58.9570031 87.567439,47.0730031 72.882439,47.0730031 Z M72.882439,92.3800031 C62.539439,92.3800031 54.155439,83.9940031 54.155439,73.6470031 C54.155439,63.3010031 62.539439,54.9150031 72.882439,54.9150031 C83.226439,54.9150031 91.609439,63.3010031 91.609439,73.6470031 C91.609439,83.9940031 83.226439,92.3800031 72.882439,92.3800031 Z M72.882439,58.7800031 L72.882439,72.7350031 C72.882439,73.1430031 73.318439,73.4150031 73.685439,73.2250031 L86.057439,66.7990031 C86.1897893,66.7291931 86.2878372,66.6082991 86.3288198,66.4643878 C86.3698024,66.3204765 86.3501551,66.1660655 86.274439,66.0370031 C83.702439,61.5310031 78.939439,58.4410031 73.440439,58.2370031 C73.294145,58.2345986 73.1529434,58.2906904 73.048178,58.3928273 C72.9434126,58.4949641 72.8837518,58.6346952 72.882439,58.7810031 L72.882439,58.7800031 Z M55.517439,48.5440031 L53.897439,46.9240031 C52.3036419,45.3317618 49.7212361,45.3317618 48.127439,46.9240031 L46.194439,48.8570031 C44.6018537,50.451829 44.6018537,53.0351771 46.194439,54.6300031 L47.800439,56.2360031 C48.045439,56.4810031 48.440439,56.4400031 48.644439,56.1680031 C49.5853542,54.8674232 50.6272424,53.6429705 51.760439,52.5060031 C52.9029723,51.3638162 54.1367258,50.3166809 55.449439,49.3750031 C55.721439,49.1850031 55.749439,48.7750031 55.517439,48.5450031 L55.517439,48.5440031 Z M81.580439,44.3100031 L81.580439,41.0840031 C81.5820339,40.0005441 81.1524062,38.9609875 80.386378,38.1947716 C79.6203498,37.4285558 78.5808984,36.9986735 77.497439,37.0000031 L67.997439,37.0000031 C66.9139797,36.9986735 65.8745283,37.4285558 65.1085001,38.1947716 C64.3424719,38.9609875 63.9128441,40.0005441 63.914439,41.0840031 L63.914439,44.3920031 C63.914439,44.7600031 64.268439,45.0180031 64.622439,44.9230031 C67.312083,44.1475036 70.0982393,43.7579468 72.897439,43.7660031 C75.619439,43.7660031 78.300439,44.1330031 80.886439,44.8410031 C81.0516155,44.8858126 81.2282382,44.8511757 81.3642566,44.7473 C81.5002749,44.6434243 81.5801856,44.4821495 81.580439,44.3110031 L81.580439,44.3100031 Z" id="Shape" fill="#3369E7"></path>
                </g>
            </g>
        </g>
    </g>
</svg>