<?xml version="1.0" encoding="UTF-8" standalone="no"?>
<svg width="146px" height="170px" viewBox="0 0 146 170" version="1.1" xmlns="http://www.w3.org/2000/svg" xmlns:xlink="http://www.w3.org/1999/xlink">
    <!-- Generator: Sketch 41.2 (35397) - http://www.bohemiancoding.com/sketch -->
    <title>frontend</title>
    <desc>Created with Sketch.</desc>
    <defs>
        <rect id="path-1" x="0" y="0" width="144" height="168" rx="4"></rect>
        <mask id="mask-2" maskContentUnits="userSpaceOnUse" maskUnits="objectBoundingBox" x="-1" y="-1" width="146" height="170">
            <rect x="-1" y="-1" width="146" height="170" fill="white"></rect>
            <use xlink:href="#path-1" fill="black"></use>
        </mask>
    </defs>
    <g id="Page-1" stroke="none" stroke-width="1" fill="none" fill-rule="evenodd">
        <g id="Desktop" transform="translate(-100.000000, -44.000000)">
            <g id="info-top" transform="translate(-9.000000, -26.000000)">
                <g id="frontend" transform="translate(110.000000, 71.000000)">
                    <g id="Rectangle-2">
                        <use fill="#FFFFFF" fill-rule="evenodd" xlink:href="#path-1"></use>
                        <use stroke="#F6A623" mask="url(#mask-2)" stroke-width="2" xlink:href="#path-1"></use>
                    </g>
                    <path d="M89.3320424,54.302415 C88.7096167,54.0881759 88.0646563,53.885471 87.4005789,53.6937664 C87.5097278,53.248307 87.6099053,52.8086147 87.698976,52.3763984 C89.161057,45.2792716 88.2050973,39.5617768 84.94078,37.6793343 C81.8107091,35.8743211 76.6917173,37.7563365 71.5217819,42.2555729 C71.0246315,42.6882164 70.5260927,43.1462781 70.027768,43.6263405 C69.695729,43.3087197 69.3642245,43.0017788 69.0335744,42.7081878 C63.6153309,37.8973114 58.1843782,35.8699423 54.9232648,37.7578317 C51.7961844,39.568078 50.8701287,44.9430677 52.1862151,51.6690673 C52.3133061,52.3187268 52.4618638,52.9821634 52.629859,53.6567071 C51.8612252,53.8748978 51.1191844,54.1075065 50.4091833,54.3549602 C44.0568741,56.5696551 40,60.0406288 40,63.6409363 C40,67.3593641 44.3550575,71.0890054 50.9714811,73.350478 C51.4936223,73.5289396 52.0354146,73.6976823 52.5937608,73.8578812 C52.4125226,74.5874266 52.254887,75.3023402 52.1225628,75.9996323 C50.8676723,82.6089004 51.8476617,87.8569056 54.9664117,89.6557246 C58.1877958,91.51339 63.5941844,89.603927 68.8586371,85.0021635 C69.2747268,84.6384053 69.6923116,84.2526468 70.110644,83.8483052 C70.6528637,84.3704462 71.1942285,84.864606 71.7327102,85.3281145 C76.8319445,89.716173 81.868274,91.4880787 84.9841403,89.6842403 C88.2023205,87.8212347 89.2482051,82.1836258 87.8903598,75.3245547 C87.7866578,74.8007045 87.6659748,74.2655336 87.5304468,73.720858 C87.9101179,73.6086116 88.282847,73.4927348 88.6462848,73.3722653 C95.524687,71.0932773 100,67.4090254 100,63.6409363 C100,60.0275994 95.8122967,56.5332366 89.3320424,54.302415 L89.3320424,54.302415 Z M87.8401645,70.939273 C87.5120774,71.0478876 87.1754463,71.1528714 86.8324073,71.2546509 C86.0730651,68.850708 85.0482201,66.2944691 83.7940771,63.653432 C84.990869,61.0752993 85.9760913,58.5517413 86.7141805,56.163391 C87.3279555,56.340998 87.9236814,56.5283238 88.4977272,56.7260091 C94.0500034,58.6373942 97.4368195,61.4634077 97.4368195,63.6409363 C97.4368195,65.9604013 93.7791609,68.9713909 87.8401645,70.939273 L87.8401645,70.939273 Z M85.3758798,75.8223454 C85.9763048,78.8553358 86.0620645,81.5975118 85.6643444,83.7411852 C85.3069945,85.6674156 84.5883426,86.9516758 83.6997733,87.4660209 C81.8088934,88.5604989 77.7652628,87.137827 73.4043311,83.3851169 C72.9044041,82.9549295 72.4008459,82.4955864 71.8956857,82.0094362 C73.586317,80.1604218 75.275987,78.0108747 76.9250734,75.6235921 C79.8256326,75.3662064 82.5659934,74.9454173 85.0511036,74.3709445 C85.1734954,74.8646772 85.282217,75.3489046 85.3758798,75.8223454 L85.3758798,75.8223454 Z M60.4553562,87.2768795 C58.6079438,87.9293158 57.1365713,87.9480055 56.2471476,87.4351558 C54.3545591,86.3435612 53.5677695,82.1299059 54.6409945,76.4776654 C54.7639204,75.8303554 54.9102353,75.1654239 55.0788712,74.4857537 C57.5367479,75.0292548 60.2570301,75.4203534 63.1645313,75.6560591 C64.8247248,77.9920783 66.5632021,80.1392758 68.315136,82.0193687 C67.9323677,82.3888937 67.5510944,82.7406906 67.1719574,83.0721951 C64.8440554,85.1070402 62.5112407,86.5507516 60.4553562,87.2768795 L60.4553562,87.2768795 Z M51.8004564,70.9250685 C48.8747993,69.9251078 46.4586812,68.6254684 44.8025461,67.207282 C43.3144062,65.9328473 42.5630738,64.6675973 42.5630738,63.6409363 C42.5630738,61.4561453 45.8203424,58.669434 51.252897,56.7753503 C51.9120616,56.5455185 52.6020912,56.3289297 53.3181798,56.1254773 C54.0689781,58.5677612 55.0538802,61.121223 56.2424485,63.703307 C55.0385012,66.323732 54.0396083,68.9178848 53.2814408,71.3887905 C52.7709407,71.2420485 52.2763536,71.087617 51.8004564,70.9250685 L51.8004564,70.9250685 Z M54.7016565,51.1768298 C53.5740706,45.414159 54.3229466,41.0670047 56.2074183,39.9761577 C58.2147092,38.8140757 62.6533903,40.4709583 67.3316223,44.6249129 C67.63066,44.8904158 67.9308726,45.1683072 68.2319395,45.4558107 C66.4886563,47.3276801 64.7660922,49.4587512 63.120637,51.7809929 C60.2987886,52.0425441 57.5976234,52.4626921 55.114115,53.0253103 C54.9579745,52.3972242 54.8196696,51.7801385 54.7016565,51.1768298 L54.7016565,51.1768298 Z M80.5829455,57.5675867 C79.9892491,56.5421009 79.3797459,55.5408584 78.7583884,54.5669566 C80.6727639,54.8089636 82.506933,55.1302156 84.2293905,55.5233434 C83.7122685,57.1806533 83.0677359,58.9134702 82.3090342,60.6898612 C81.7647857,59.656579 81.189138,58.6147528 80.5829455,57.5675867 L80.5829455,57.5675867 Z M70.0286221,47.2876304 C71.2108893,48.5684732 72.3948651,49.9985144 73.5594037,51.550093 C72.3858939,51.4946642 71.1978597,51.4658284 70.0000002,51.4658284 C68.8134611,51.4658284 67.6341845,51.4940234 66.4679371,51.548491 C67.6336504,50.0113302 68.8278789,48.5832114 70.0286221,47.2876304 L70.0286221,47.2876304 Z M59.4066949,57.5853154 C58.813639,58.6136848 58.2486713,59.6498506 57.7129665,60.6879388 C56.966547,58.9177421 56.3279946,57.1770221 55.8063873,55.4962164 C57.5182716,55.1131277 59.3437902,54.7998857 61.2459906,54.5624711 C60.6158754,55.545344 60.0013528,56.5539556 59.4066949,57.5851018 L59.4066949,57.5853154 L59.4066949,57.5853154 Z M61.3007786,72.902242 C59.3354599,72.6829832 57.4824939,72.3858681 55.7710368,72.0133523 C56.3009744,70.3025359 56.9536243,68.5246499 57.7158501,66.7163259 C58.2529433,67.7536666 58.8201538,68.7902596 59.4168409,69.8208719 L59.4169476,69.8208719 C60.0247419,70.8708147 60.6544299,71.8992906 61.3007786,72.902242 L61.3007786,72.902242 Z M70.099537,80.1749465 C68.8846961,78.8642001 67.6729525,77.4142945 66.4895106,75.8547058 C67.6383494,75.8997749 68.8096162,75.9228437 70.0000002,75.9228437 C71.2229577,75.9228437 72.4319245,75.8952895 73.6218813,75.842317 C72.4534977,77.4299941 71.2737941,78.8821424 70.099537,80.1749465 L70.099537,80.1749465 Z M82.3334912,66.6241584 C83.1354463,68.4520265 83.8114853,70.2206212 84.348258,71.9022812 C82.608606,72.2991468 80.7303287,72.618797 78.7513396,72.8563185 C79.3741926,71.8692801 79.9890353,70.8508429 80.5931983,69.8032497 C81.2044103,68.7433748 81.784757,67.6818977 82.3334912,66.6241584 L82.3334912,66.6241584 Z M78.3729498,68.5227276 C77.4350395,70.1489587 76.4721379,71.7013916 75.494605,73.1667838 C73.7141554,73.2940881 71.874753,73.359663 70.0000002,73.359663 C68.13283,73.359663 66.3166026,73.3016709 64.5676593,73.1881434 C63.5507172,71.703528 62.5668831,70.1465027 61.6349533,68.5367181 L61.6351669,68.5367181 C60.7056935,66.9313129 59.850232,65.3123437 59.0750835,63.702453 C59.8500184,62.0888237 60.7032371,60.4680393 61.6273705,58.8655173 L61.627157,58.8658377 C62.5537467,57.2590439 63.5289302,55.7096012 64.5364736,54.2342771 C66.3208745,54.0993898 68.1506652,54.0290091 69.9998934,54.0290091 L70.0000002,54.0290091 C71.8575585,54.0290091 73.6896986,54.0999237 75.4735654,54.2359859 C76.4657298,55.7005233 77.4342918,57.2449464 78.3645128,58.8519539 C79.3053072,60.4770105 80.1695261,62.087008 80.9510823,63.6660344 C80.1718757,65.2721873 79.3095791,66.8984188 78.3729498,68.5227276 L78.3729498,68.5227276 Z M83.6604712,39.8999031 C85.6696846,41.0585675 86.4510271,45.7314594 85.1886609,51.8590631 C85.1081341,52.2500549 85.0174619,52.6483091 84.9189927,53.0519033 C82.4297172,52.4775372 79.7266295,52.0501269 76.8965582,51.784624 C75.2478988,49.4368574 73.5394321,47.3024755 71.8245573,45.4546359 C72.2856095,45.0110989 72.7460209,44.588174 73.2045098,44.1890655 C77.6341131,40.3341486 81.7741839,38.8121533 83.6604712,39.8999031 L83.6604712,39.8999031 Z M70.0000002,58.2831413 C72.9589785,58.2831413 75.3577952,60.6818512 75.3577952,63.6409363 C75.3577952,66.5999146 72.9589785,68.9987317 70.0000002,68.9987317 C67.0410217,68.9987317 64.6422051,66.5999146 64.6422051,63.6409363 C64.6422051,60.6818512 67.0410217,58.2831413 70.0000002,58.2831413 L70.0000002,58.2831413 Z" id="Shape" fill="#F6A623"></path>
                    <text id="Frontend" opacity="0.8" font-family="OpenSans, Open Sans" font-size="16" font-weight="normal" line-spacing="14" fill="#F6A623">
                        <tspan x="38.5" y="149">Frontend</tspan>
                    </text>
                </g>
            </g>
        </g>
    </g>
</svg>