<?xml version="1.0" encoding="UTF-8" standalone="no"?>
<svg width="278px" height="170px" viewBox="0 0 278 170" version="1.1" xmlns="http://www.w3.org/2000/svg" xmlns:xlink="http://www.w3.org/1999/xlink">
    <!-- Generator: Sketch 41.2 (35397) - http://www.bohemiancoding.com/sketch -->
    <title>graphcool</title>
    <desc>Created with Sketch.</desc>
    <defs>
        <rect id="path-1" x="0" y="0" width="275" height="168" rx="4"></rect>
        <mask id="mask-2" maskContentUnits="userSpaceOnUse" maskUnits="objectBoundingBox" x="-1" y="-1" width="277" height="170">
            <rect x="-1" y="-1" width="277" height="170" fill="white"></rect>
            <use xlink:href="#path-1" fill="black"></use>
        </mask>
    </defs>
    <g id="Page-1" stroke="none" stroke-width="1" fill="none" fill-rule="evenodd">
        <g id="Desktop" transform="translate(-369.000000, -44.000000)">
            <g id="info-top" transform="translate(-9.000000, -26.000000)">
                <g id="graphcool" transform="translate(379.500000, 71.000000)">
                    <g id="Rectangle-2">
                        <use fill="#FFFFFF" fill-rule="evenodd" xlink:href="#path-1"></use>
                        <use stroke="#27AE60" mask="url(#mask-2)" stroke-width="2" xlink:href="#path-1"></use>
                    </g>
                    <g id="Group-3" transform="translate(43.000000, 33.000000)" fill="#27AE60">
                        <text id="Backend" opacity="0.8" font-family="OpenSans, Open Sans" font-size="16" font-weight="normal">
                            <tspan x="0.21875" y="112">Backend</tspan>
                        </text>
                        <path d="M58.7146055,23.1800266 C55.3037203,21.2591169 51.0167376,23.7654467 50.3296821,24.1963809 L35.6027076,32.548781 C33.4283904,30.8218273 30.3306293,30.8951914 28.2405029,32.7231398 C26.1503765,34.5510883 25.6649411,37.6114575 27.0868068,39.9964777 C28.5086725,42.3814981 31.4316753,43.4098753 34.0336774,42.440541 C36.6356795,41.4712064 38.1734043,38.7810561 37.6882667,36.0470727 L52.3745871,27.712967 L52.4640262,27.6580839 C53.4295629,27.0482713 55.6696079,26.135585 56.7164528,26.7271033 C57.4705878,27.1519394 57.901522,28.5748355 57.9360781,30.6705582 L57.9177837,30.6705582 L57.9177837,49.0929971 C57.914735,50.8114625 56.9980391,52.398647 55.5110566,53.26005 L34.399344,65.4563022 C32.9099027,66.3128555 31.0773638,66.3128555 29.5879225,65.4563022 L8.47620992,53.26005 C6.98922733,52.398647 6.0725314,50.8114625 6.06948282,49.0929971 L6.06948282,24.7106562 C6.0725314,22.9921909 6.98922733,21.4050064 8.47620992,20.5436034 L27.5836717,9.5161587 C29.4016,11.6016979 32.4481733,12.0944703 34.8308627,10.688366 C37.2135518,9.28226172 38.2548806,6.37708208 37.307976,3.7775227 C36.3610715,1.17796332 33.6951698,-0.376836228 30.9663269,0.0789644667 C28.2374841,0.534765164 26.2215996,2.87156709 26.1709392,5.6377505 L6.45366477,17.0209192 C3.70429687,18.6068066 2.00739147,21.5366985 2,24.7106562 L2,49.086899 C2.00300341,52.2593794 3.69428944,55.1904772 6.43943581,56.7807014 L27.5511484,68.9769537 C30.2989933,70.5576339 33.6801424,70.5576339 36.4279873,68.9769537 L57.5396999,56.7807014 C60.2829647,55.191571 61.9739608,52.2632987 61.9791357,49.0929971 L61.9791357,31.3718427 L61.9933646,31.3718427 C62.0970328,27.2149534 60.9851411,24.4606331 58.7146055,23.1800266 Z" id="Shape"></path>
                    </g>
                    <g id="graphql" transform="translate(135.000000, 9.000000)" font-size="12" font-family="SourceCodePro-Medium, Source Code Pro" line-spacing="14" font-weight="400">
                        <text id="query-sync-{-node-{">
                            <tspan x="19.036" y="25" fill="#9B9B9B">query sync {</tspan>
                            <tspan x="19.036" y="39" fill="#9B9B9B">  node {</tspan>
                            <tspan x="79" y="40.72" fill="#363636"></tspan>
                            <tspan x="19.036" y="53" fill="#363636">    </tspan>
                            <tspan x="47.8" y="53" font-family="SourceCodePro-Semibold, Source Code Pro" font-weight="500" fill="#27AE60">name</tspan>
                            <tspan x="19" y="67" font-family="SourceCodePro-Semibold, Source Code Pro" font-weight="500" fill="#27AE60">    style</tspan>
                            <tspan x="19" y="81" font-family="SourceCodePro-Semibold, Source Code Pro" font-weight="500" fill="#27AE60">    brewery {</tspan>
                            <tspan x="19" y="95" font-family="SourceCodePro-Semibold, Source Code Pro" font-weight="500" fill="#27AE60">      name</tspan>
                            <tspan x="19" y="109" font-family="SourceCodePro-Semibold, Source Code Pro" font-weight="500" fill="#27AE60">    }</tspan>
                            <tspan x="57.4" y="110.72" font-family="SourceCodePro-Semibold, Source Code Pro" font-weight="500" fill="#363636"></tspan>
                            <tspan x="21.4" y="123" fill="#9B9B9B">	}</tspan>
                            <tspan x="19.036" y="137" fill="#9B9B9B">}</tspan>
                        </text>
                    </g>
                </g>
            </g>
        </g>
    </g>
</svg>